<?xml version="1.0" encoding="UTF-8" standalone="no"?>
<!-- Created with Inkscape (http://www.inkscape.org/) -->

<svg
   xmlns:dc="http://purl.org/dc/elements/1.1/"
   xmlns:cc="http://creativecommons.org/ns#"
   xmlns:rdf="http://www.w3.org/1999/02/22-rdf-syntax-ns#"
   xmlns:svg="http://www.w3.org/2000/svg"
   xmlns="http://www.w3.org/2000/svg"
   xmlns:sodipodi="http://sodipodi.sourceforge.net/DTD/sodipodi-0.dtd"
   xmlns:inkscape="http://www.inkscape.org/namespaces/inkscape"
   width="210mm"
   height="297mm"
   viewBox="0 0 744.09448819 1052.3622047"
   id="svg2"
   version="1.1"
   inkscape:version="0.91 r13725"
   sodipodi:docname="div0.svg"
   inkscape:export-filename="C:\Users\Nick\Desktop\bitmap.png"
   inkscape:export-xdpi="90"
   inkscape:export-ydpi="90">
  <defs
     id="defs4">
    <marker
       inkscape:isstock="true"
       style="overflow:visible;"
       id="marker5351"
       refX="0.0"
       refY="0.0"
       orient="auto"
       inkscape:stockid="Arrow1Mend">
      <path
         transform="scale(0.4) rotate(180) translate(10,0)"
         style="fill-rule:evenodd;stroke:#a762ff;stroke-width:1pt;stroke-opacity:1;fill:#a762ff;fill-opacity:1"
         d="M 0.0,0.0 L 5.0,-5.0 L -12.5,0.0 L 5.0,5.0 L 0.0,0.0 z "
         id="path5353" />
    </marker>
    <marker
       inkscape:isstock="true"
       style="overflow:visible;"
       id="marker5293"
       refX="0.0"
       refY="0.0"
       orient="auto"
       inkscape:stockid="Arrow1Mend">
      <path
         transform="scale(0.4) rotate(180) translate(10,0)"
         style="fill-rule:evenodd;stroke:#6599ff;stroke-width:1pt;stroke-opacity:1;fill:#6599ff;fill-opacity:1"
         d="M 0.0,0.0 L 5.0,-5.0 L -12.5,0.0 L 5.0,5.0 L 0.0,0.0 z "
         id="path5295" />
    </marker>
    <marker
       inkscape:isstock="true"
       style="overflow:visible;"
       id="marker5241"
       refX="0.0"
       refY="0.0"
       orient="auto"
       inkscape:stockid="Arrow1Mend">
      <path
         transform="scale(0.4) rotate(180) translate(10,0)"
         style="fill-rule:evenodd;stroke:#6599ff;stroke-width:1pt;stroke-opacity:1;fill:#6599ff;fill-opacity:1"
         d="M 0.0,0.0 L 5.0,-5.0 L -12.5,0.0 L 5.0,5.0 L 0.0,0.0 z "
         id="path5243" />
    </marker>
    <marker
       inkscape:stockid="Arrow1Mend"
       orient="auto"
       refY="0.0"
       refX="0.0"
       id="Arrow1Mend"
       style="overflow:visible;"
       inkscape:isstock="true"
       inkscape:collect="always">
      <path
         id="path4222"
         d="M 0.0,0.0 L 5.0,-5.0 L -12.5,0.0 L 5.0,5.0 L 0.0,0.0 z "
         style="fill-rule:evenodd;stroke:#a762ff;stroke-width:1pt;stroke-opacity:1;fill:#a762ff;fill-opacity:1"
         transform="scale(0.4) rotate(180) translate(10,0)" />
    </marker>
    <marker
       inkscape:stockid="Arrow1Lend"
       orient="auto"
       refY="0.0"
       refX="0.0"
       id="marker4773"
       style="overflow:visible;"
       inkscape:isstock="true">
      <path
         id="path4775"
         d="M 0.0,0.0 L 5.0,-5.0 L -12.5,0.0 L 5.0,5.0 L 0.0,0.0 z "
         style="fill-rule:evenodd;stroke:#6599ff;stroke-width:1pt;stroke-opacity:1;fill:#6599ff;fill-opacity:1"
         transform="scale(0.8) rotate(180) translate(12.5,0)" />
    </marker>
    <marker
       inkscape:stockid="Arrow1Lend"
       orient="auto"
       refY="0.0"
       refX="0.0"
       id="Arrow1Lend"
       style="overflow:visible;"
       inkscape:isstock="true">
      <path
         id="path4216"
         d="M 0.0,0.0 L 5.0,-5.0 L -12.5,0.0 L 5.0,5.0 L 0.0,0.0 z "
         style="fill-rule:evenodd;stroke:#000000;stroke-width:1.0pt;"
         transform="scale(0.8) rotate(180) translate(12.5,0)" />
    </marker>
    <marker
       inkscape:stockid="Arrow1Lend"
       orient="auto"
       refY="0.0"
       refX="0.0"
       id="marker4591"
       style="overflow:visible;"
       inkscape:isstock="true">
      <path
         id="path4593"
         d="M 0.0,0.0 L 5.0,-5.0 L -12.5,0.0 L 5.0,5.0 L 0.0,0.0 z "
         style="fill-rule:evenodd;stroke:#a762ff;stroke-width:1pt;stroke-opacity:1;fill:#a762ff;fill-opacity:1"
         transform="scale(0.8) rotate(180) translate(12.5,0)" />
    </marker>
    <marker
       inkscape:stockid="Arrow1Lend"
       orient="auto"
       refY="0.0"
       refX="0.0"
       id="marker4563"
       style="overflow:visible;"
       inkscape:isstock="true">
      <path
         id="path4565"
         d="M 0.0,0.0 L 5.0,-5.0 L -12.5,0.0 L 5.0,5.0 L 0.0,0.0 z "
         style="fill-rule:evenodd;stroke:#a762ff;stroke-width:1pt;stroke-opacity:1;fill:#a762ff;fill-opacity:1"
         transform="scale(0.8) rotate(180) translate(12.5,0)" />
    </marker>
    <linearGradient
       y2="1.3340014"
       y1="150.667"
       x2="76.000761"
       x1="76.000761"
       id="def0"
       gradientUnits="userSpaceOnUse">
      <stop
         id="stop4141"
         stop-color="#B8DAFF"
         offset="0" />
      <stop
         id="stop4143"
         stop-color="#B8DAFF"
         offset="0.00561806" />
      <stop
         id="stop4145"
         stop-color="#F6F9FF"
         offset="1" />
    </linearGradient>
  </defs>
  <sodipodi:namedview
     id="base"
     pagecolor="#ffffff"
     bordercolor="#666666"
     borderopacity="1.0"
     inkscape:pageopacity="1"
     inkscape:pageshadow="2"
     inkscape:zoom="0.98994949"
     inkscape:cx="303.75759"
     inkscape:cy="911.52757"
     inkscape:document-units="px"
     inkscape:current-layer="layer1"
     showgrid="false"
     showguides="false"
     inkscape:window-width="1920"
     inkscape:window-height="1028"
     inkscape:window-x="-8"
     inkscape:window-y="-8"
     inkscape:window-maximized="1" />
  <metadata
     id="metadata7">
    <rdf:RDF>
      <cc:Work
         rdf:about="">
        <dc:format>image/svg+xml</dc:format>
        <dc:type
           rdf:resource="http://purl.org/dc/dcmitype/StillImage" />
        <dc:title></dc:title>
      </cc:Work>
    </rdf:RDF>
  </metadata>
  <g
     inkscape:label="Layer 1"
     inkscape:groupmode="layer"
     id="layer1">
    <g
       id="g4147"
       transform="matrix(2.1057619,0,0,2.1057619,350.98005,63.680673)">
      <path
         id="path4149"
         d="M 152,152 0,152 0,0 l 152,0 0,152 z"
         inkscape:connector-curvature="0"
         style="fill:#77a1c9" />
      <path
         id="path4151"
         d="m 1.33333,1.33333 149.33367,0 0,149.33367 -149.33367,0 0,-149.33367 z"
         inkscape:connector-curvature="0"
         style="fill:url(#def0)" />
      <path
         id="path4153"
         d="m 82.6667,18.6667 -72,0 0,-2.6667 72,0 0,2.6667 z"
         inkscape:connector-curvature="0"
         style="fill:#0066cc" />
      <path
         id="path4155"
         d="m 54.6667,30.6667 -24,0 0,-2.6667 24,0 0,2.6667 z"
         inkscape:connector-curvature="0"
         style="fill:#0066cc" />
      <path
         id="path4157"
         d="m 72,42.6667 -18.6667,0 0,-2.6667 18.6667,0 0,2.6667 z"
         inkscape:connector-curvature="0"
         style="fill:#ff9900;fill-opacity:1" />
      <path
         id="path4159"
         d="m 118.667,54.6667 -72.0003,0 0,-2.6667 72.0003,0 0,2.6667 z"
         inkscape:connector-curvature="0"
         style="fill:#0066cc" />
      <path
         id="path4161"
         d="M 50.6667,66.6667 32,66.6667 32,64 l 18.6667,0 0,2.6667 z"
         inkscape:connector-curvature="0"
         style="fill:#ff9900;fill-opacity:1" />
      <path
         id="path4163"
         d="m 81.3333,78.6667 -62.6666,0 0,-2.6667 62.6666,0 0,2.6667 z"
         inkscape:connector-curvature="0"
         style="fill:#0066cc" />
      <path
         id="path4165"
         d="m 38.6667,90.6667 -20,0 0,-2.6667 20,0 0,2.6667 z"
         inkscape:connector-curvature="0"
         style="fill:#0066cc" />
      <path
         id="path4167"
         d="m 65.3333,102.667 -36,0 0,-2.667 36,0 0,2.667 z"
         inkscape:connector-curvature="0"
         style="fill:#0066cc" />
      <path
         id="path4169"
         d="m 68.000171,114.667 -18.666871,0 0,-2.667 18.666871,0 z"
         inkscape:connector-curvature="0"
         style="fill:#ff9900;fill-opacity:1"
         sodipodi:nodetypes="ccccc" />
      <path
         id="path4171"
         d="m 101.333,126.667 -59.9997,0 0,-2.667 59.9997,0 0,2.667 z"
         inkscape:connector-curvature="0"
         style="fill:#0066cc" />
      <path
         id="path4173"
         d="m 144,138.667 -61.3333,0 0,-2.667 61.3333,0 0,2.667 z"
         inkscape:connector-curvature="0"
         style="fill:#0066cc" />
    </g>
    <path
       style="fill:none;fill-rule:evenodd;stroke:#6599ff;stroke-width:1.29999995;stroke-linecap:round;stroke-linejoin:miter;stroke-miterlimit:4;stroke-dasharray:none;stroke-opacity:1;marker-end:url(#marker5293)"
       d="m 159.93679,103.45593 c 2.85714,-0.71428 290.71386,44.95232 290.71386,44.95232"
       id="path4205"
       inkscape:connector-curvature="0"
       sodipodi:nodetypes="cc" />
    <path
       inkscape:connector-curvature="0"
       id="path4771"
       d="m 159.93665,122.09299 c 2.85714,-0.71428 251.19222,78.33811 251.19222,78.33811"
       style="fill:none;fill-rule:evenodd;stroke:#6599ff;stroke-width:1.29999995;stroke-linecap:round;stroke-linejoin:miter;stroke-miterlimit:4;stroke-dasharray:none;stroke-opacity:1;marker-end:url(#marker5241)"
       sodipodi:nodetypes="cc" />
    <path
       style="fill:none;fill-rule:evenodd;stroke:#a762ff;stroke-width:1.29999995;stroke-linecap:round;stroke-linejoin:miter;stroke-miterlimit:4;stroke-dasharray:none;stroke-opacity:1;marker-end:url(#Arrow1Mend)"
       d="m 159.93665,227.23583 290.714,-74.75851"
       id="path4553"
       inkscape:connector-curvature="0"
       sodipodi:nodetypes="cc" />
    <path
       style="fill:none;fill-rule:evenodd;stroke:#a762ff;stroke-width:1.29999995;stroke-linecap:round;stroke-linejoin:miter;stroke-miterlimit:4;stroke-dasharray:none;stroke-opacity:1;marker-end:url(#marker5351)"
       d="m 159.93665,245.27679 285.91578,56.63975"
       id="path4555"
       inkscape:connector-curvature="0"
       sodipodi:nodetypes="cc" />
    <g
       id="g5393"
       transform="translate(9.699288,-51.808831)">
      <rect
         y="196.11"
         x="241.13008"
         height="16.570768"
         width="23.438425"
         id="rect5391"
         style="opacity:1;fill:#ffffff;fill-opacity:1;fill-rule:nonzero;stroke:none;stroke-width:1.29999995;stroke-linecap:butt;stroke-miterlimit:4;stroke-dasharray:none;stroke-dashoffset:0;stroke-opacity:1" />
      <flowRoot
         transform="translate(59.999997,7.1428571)"
         style="font-style:normal;font-weight:normal;font-size:17.5px;line-height:125%;font-family:sans-serif;letter-spacing:0px;word-spacing:0px;fill:#000000;fill-opacity:1;stroke:none;stroke-width:1px;stroke-linecap:butt;stroke-linejoin:miter;stroke-opacity:1"
         id="flowRoot5383"
         xml:space="preserve"><flowRegion
           id="flowRegion5385"><rect
             style="font-size:17.5px"
             y="185.57649"
             x="181.07143"
             height="29.910793"
             width="25.658415"
             id="rect5387" /></flowRegion><flowPara
           id="flowPara5389">16</flowPara></flowRoot>    </g>
    <g
       transform="translate(16.012756,-84.801121)"
       id="g5520">
      <rect
         style="opacity:1;fill:#ffffff;fill-opacity:1;fill-rule:nonzero;stroke:none;stroke-width:1.29999995;stroke-linecap:butt;stroke-miterlimit:4;stroke-dasharray:none;stroke-dashoffset:0;stroke-opacity:1"
         id="rect5522"
         width="14.767328"
         height="17.580921"
         x="239.33167"
         y="196.11" />
      <flowRoot
         xml:space="preserve"
         id="flowRoot5524"
         style="font-style:normal;font-weight:normal;font-size:17.5px;line-height:125%;font-family:sans-serif;letter-spacing:0px;word-spacing:0px;fill:#000000;fill-opacity:1;stroke:none;stroke-width:1px;stroke-linecap:butt;stroke-linejoin:miter;stroke-opacity:1"
         transform="translate(59.999997,7.1428571)"><flowRegion
           id="flowRegion5526"><rect
             id="rect5528"
             width="48.386848"
             height="30.415871"
             x="181.07143"
             y="185.57649"
             style="font-size:17.5px" /></flowRegion><flowPara
           id="flowPara5530">8</flowPara></flowRoot>    </g>
    <g
       id="g5532"
       transform="translate(15.949616,-3.968276)">
      <rect
         y="196.11"
         x="240.37247"
         height="16.570768"
         width="13.147495"
         id="rect5534"
         style="opacity:1;fill:#ffffff;fill-opacity:1;fill-rule:nonzero;stroke:none;stroke-width:1.29999995;stroke-linecap:butt;stroke-miterlimit:4;stroke-dasharray:none;stroke-dashoffset:0;stroke-opacity:1" />
      <flowRoot
         transform="translate(59.999997,7.1428571)"
         style="font-style:normal;font-weight:normal;font-size:17.5px;line-height:125%;font-family:sans-serif;letter-spacing:0px;word-spacing:0px;fill:#000000;fill-opacity:1;stroke:none;stroke-width:1px;stroke-linecap:butt;stroke-linejoin:miter;stroke-opacity:1"
         id="flowRoot5536"
         xml:space="preserve"><flowRegion
           id="flowRegion5538"><rect
             style="font-size:17.5px"
             y="185.57649"
             x="181.07143"
             height="25.714289"
             width="26.785707"
             id="rect5540" /></flowRegion><flowPara
           id="flowPara5542">9</flowPara></flowRoot>    </g>
    <g
       transform="translate(10.204368,60.495461)"
       id="g5544">
      <rect
         style="opacity:1;fill:#ffffff;fill-opacity:1;fill-rule:nonzero;stroke:none;stroke-width:1.29999995;stroke-linecap:butt;stroke-miterlimit:4;stroke-dasharray:none;stroke-dashoffset:0;stroke-opacity:1"
         id="rect5546"
         width="23.088396"
         height="16.570768"
         x="241.23656"
         y="196.11" />
      <flowRoot
         xml:space="preserve"
         id="flowRoot5548"
         style="font-style:normal;font-weight:normal;font-size:17.5px;line-height:125%;font-family:sans-serif;letter-spacing:0px;word-spacing:0px;fill:#000000;fill-opacity:1;stroke:none;stroke-width:1px;stroke-linecap:butt;stroke-linejoin:miter;stroke-opacity:1"
         transform="translate(59.999997,7.1428571)"><flowRegion
           id="flowRegion5550"><rect
             id="rect5552"
             width="130.71428"
             height="81.428574"
             x="181.07143"
             y="185.57649"
             style="font-size:17.5px" /></flowRegion><flowPara
           id="flowPara5554">12</flowPara></flowRoot>    </g>
    <flowRoot
       xml:space="preserve"
       id="flowRoot5814"
       style="font-style:normal;font-weight:normal;font-size:17.5px;line-height:125%;font-family:sans-serif;letter-spacing:0px;word-spacing:0px;fill:#000000;fill-opacity:1;stroke:none;stroke-width:1px;stroke-linecap:butt;stroke-linejoin:miter;stroke-opacity:1"
       transform="translate(8.740977,11.942592)"><flowRegion
         id="flowRegion5816"><rect
           id="rect5818"
           width="204.28572"
           height="42.142857"
           x="417.85715"
           y="21.647919"
           style="font-size:17.5px" /></flowRegion><flowPara
         id="flowPara5820">System Under Test</flowPara></flowRoot>    <g
       id="Page-1"
       style="fill:#6599ff;fill-opacity:1;fill-rule:evenodd;stroke:none;stroke-width:1"
       transform="matrix(3.16944,0,0,3.16944,64.578313,54.172315)">
      <g
         id="icon-65-document-image"
         style="fill:#6599ff;fill-opacity:1">
        <path
           id="document-image"
           d="M 22,24.045728 22,18 l -11,0 0,7 0,0 2.5,-2 1.457939,1.249662 L 18.59303,21 22,24.045728 l 0,0 0,0 z M 19,3 9.0085302,3 C 7.8992496,3 7,3.8983383 7,5.0073299 L 7,27.99267 C 7,29.101288 7.8909254,30 8.9974219,30 L 24.002578,30 C 25.105724,30 26,29.109075 26,28.002578 L 26,11 21.005919,11 C 19.898081,11 19,10.113294 19,9.0018986 L 19,3 19,3 Z m 1,0 0,5.9970707 C 20,9.5509732 20.450975,10 20.990778,10 L 26,10 20,3 20,3 Z m -10,14 0,10 13,0 0,-10 -13,0 0,0 z m 4,4 c 0.552285,0 1,-0.447715 1,-1 0,-0.552285 -0.447715,-1 -1,-1 -0.552285,0 -1,0.447715 -1,1 0,0.552285 0.447715,1 1,1 l 0,0 z"
           inkscape:connector-curvature="0"
           style="fill:#6599ff;fill-opacity:1" />
      </g>
    </g>
    <g
       transform="matrix(3.16944,0,0,3.16944,64.578313,178.64631)"
       style="fill:#d200ed;fill-opacity:1;fill-rule:evenodd;stroke:none;stroke-width:1"
       id="g5988">
      <g
         style="fill:#d200ed;fill-opacity:1"
         id="g5990">
        <path
           style="fill:#d200ed;fill-opacity:1"
           inkscape:connector-curvature="0"
           d="M 22,24.045728 22,18 l -11,0 0,7 0,0 2.5,-2 1.457939,1.249662 L 18.59303,21 22,24.045728 l 0,0 0,0 z M 19,3 9.0085302,3 C 7.8992496,3 7,3.8983383 7,5.0073299 L 7,27.99267 C 7,29.101288 7.8909254,30 8.9974219,30 L 24.002578,30 C 25.105724,30 26,29.109075 26,28.002578 L 26,11 21.005919,11 C 19.898081,11 19,10.113294 19,9.0018986 L 19,3 19,3 Z m 1,0 0,5.9970707 C 20,9.5509732 20.450975,10 20.990778,10 L 26,10 20,3 20,3 Z m -10,14 0,10 13,0 0,-10 -13,0 0,0 z m 4,4 c 0.552285,0 1,-0.447715 1,-1 0,-0.552285 -0.447715,-1 -1,-1 -0.552285,0 -1,0.447715 -1,1 0,0.552285 0.447715,1 1,1 l 0,0 z"
           id="path5992" />
      </g>
    </g>
    <rect
       style="opacity:1;fill:none;fill-opacity:1;fill-rule:nonzero;stroke:#77a1c9;stroke-width:1.4;stroke-linecap:round;stroke-miterlimit:4;stroke-dasharray:none;stroke-dashoffset:0;stroke-opacity:1"
       id="rect8138"
       width="27.857143"
       height="27.857143"
       x="248.71919"
       y="333.74173"
       rx="3.6617999"
       ry="3.6617999" />
    <g
       id="g5998"
       transform="translate(16.012756,143.2171)">
      <flowRoot
         transform="translate(59.999997,7.1428571)"
         style="font-style:normal;font-weight:normal;font-size:17.5px;line-height:125%;font-family:sans-serif;letter-spacing:0px;word-spacing:0px;fill:#000000;fill-opacity:1;stroke:none;stroke-width:1px;stroke-linecap:butt;stroke-linejoin:miter;stroke-opacity:1"
         id="flowRoot6002"
         xml:space="preserve"><flowRegion
           id="flowRegion6004"><rect
             style="font-size:17.5px"
             y="185.57649"
             x="181.07143"
             height="30.415871"
             width="48.386848"
             id="rect6006" /></flowRegion><flowPara
           id="flowPara6008">8</flowPara></flowRoot>    </g>
    <flowRoot
       transform="translate(-344.8188,11.942592)"
       style="font-style:normal;font-weight:normal;font-size:17.5px;line-height:125%;font-family:sans-serif;letter-spacing:0px;word-spacing:0px;fill:#000000;fill-opacity:1;stroke:none;stroke-width:1px;stroke-linecap:butt;stroke-linejoin:miter;stroke-opacity:1"
       id="flowRoot6478"
       xml:space="preserve"><flowRegion
         id="flowRegion6480"><rect
           style="font-size:17.5px"
           y="21.647919"
           x="417.85715"
           height="21.428572"
           width="140.00002"
           id="rect6482" /></flowRegion><flowPara
         id="flowPara6484">Test Suite</flowPara></flowRoot>    <flowRoot
       xml:space="preserve"
       id="flowRoot6974"
       style="font-style:normal;font-weight:normal;font-size:12.5px;line-height:125%;font-family:sans-serif;text-align:start;letter-spacing:0px;word-spacing:0px;text-anchor:start;fill:#000000;fill-opacity:1;stroke:none;stroke-width:1px;stroke-linecap:butt;stroke-linejoin:miter;stroke-opacity:1"
       transform="translate(13.592151,-81.718915)"><flowRegion
         id="flowRegion6976"><rect
           id="rect6978"
           width="156.83722"
           height="49.039303"
           x="80.714287"
           y="407.36221"
           style="font-size:12.5px;text-align:start;text-anchor:start" /></flowRegion><flowPara
         style="font-size:17.5px;text-align:start;text-anchor:start"
         id="flowPara7872">Fitness score of the entire suite </flowPara></flowRoot>    <rect
       y="313.97864"
       x="88.014397"
       height="68.27784"
       width="200.17766"
       id="rect7874"
       style="opacity:1;fill:none;fill-opacity:1;fill-rule:nonzero;stroke:#77a1c9;stroke-width:2.5;stroke-linecap:round;stroke-miterlimit:4;stroke-dasharray:none;stroke-dashoffset:0;stroke-opacity:1" />
  </g>
</svg>
