<?xml version="1.0" encoding="UTF-8" standalone="no"?>
<!-- Created with Inkscape (http://www.inkscape.org/) -->

<svg
   xmlns:sketch="http://www.bohemiancoding.com/sketch/ns"
   xmlns:dc="http://purl.org/dc/elements/1.1/"
   xmlns:cc="http://creativecommons.org/ns#"
   xmlns:rdf="http://www.w3.org/1999/02/22-rdf-syntax-ns#"
   xmlns:svg="http://www.w3.org/2000/svg"
   xmlns="http://www.w3.org/2000/svg"
   xmlns:sodipodi="http://sodipodi.sourceforge.net/DTD/sodipodi-0.dtd"
   xmlns:inkscape="http://www.inkscape.org/namespaces/inkscape"
   width="210mm"
   height="297mm"
   viewBox="0 0 744.09448819 1052.3622047"
   id="svg2"
   version="1.1"
   inkscape:version="0.91 r13725"
   sodipodi:docname="overview.svg">
  <defs
     id="defs4">
    <inkscape:perspective
       sodipodi:type="inkscape:persp3d"
       inkscape:vp_x="0 : 526.1811 : 1"
       inkscape:vp_y="0 : 1000 : 0"
       inkscape:vp_z="744.09449 : 526.1811 : 1"
       inkscape:persp3d-origin="372.04724 : 350.7874 : 1"
       id="perspective4914" />
    <clipPath
       id="clipPath3352"
       clipPathUnits="userSpaceOnUse">
      <path
         style="clip-rule:evenodd"
         inkscape:connector-curvature="0"
         id="path3354"
         d="m 190,290 -99.9141,0 C 78.9922,290 70,281.016 70,269.926 L 70,40.0742 C 70,28.9883 78.9102,20 89.9727,20 L 240.027,20 C 251.059,20 260,28.9102 260,39.9727 L 260,210 210.059,210 C 198.98,210 190,218.867 190,229.98 l 0,60.02 0,0 z m 10,0 0,-59.969 C 200,224.492 204.508,220 209.906,220 l 50.094,0 -60,70 0,0 z m -70,-230 -40,40 40,40 7,-7 -33,-33 33,-33 -7,-7 0,0 z m 70,0 40,40 -40,40 -7,-7 33,-33 -33,-33 7,-7 0,0 z m -30,80 -20,-80 10,0 20,80 -10,0 0,0 z" />
    </clipPath>
    <clipPath
       id="clipPath3358"
       clipPathUnits="userSpaceOnUse">
      <path
         inkscape:connector-curvature="0"
         id="path3360"
         d="M 0,0 320,0 320,320 0,320 0,0 Z" />
    </clipPath>
    <mask
       maskUnits="userSpaceOnUse"
       id="mask4663">
      <path
         style="fill:#929292;fill-rule:evenodd;stroke:none;stroke-width:1"
         inkscape:connector-curvature="0"
         d="m 355.66413,101.05537 -9.99147,0 c -1.10928,0 -2.00853,0.89834 -2.00853,2.00733 l 0,22.98534 c 0,1.10862 0.89093,2.00733 1.99742,2.00733 l 15.00516,0 c 1.10314,0 1.99742,-0.89092 1.99742,-1.99742 l 0,-17.00258 -4.99408,0 c -1.10784,0 -2.00592,-0.8867 -2.00592,-1.9981 l 0,-6.0019 0,0 z m 1,0 0,5.99707 c 0,0.55391 0.45097,1.00293 0.99078,1.00293 l 5.00922,0 -6,-7 0,0 z m -7,23 -4,-4 4,-4 0.7,0.7 -3.3,3.3 3.3,3.3 -0.7,0.7 0,0 z m 7,0 4,-4 -4,-4 -0.7,0.7 3.3,3.3 -3.3,3.3 0.7,0.7 0,0 z m -3,-8 -2,8 1,0 2,-8 -1,0 0,0 z"
         id="path4665"
         sketch:type="MSShapeGroup" />
    </mask>
    <clipPath
       clipPathUnits="userSpaceOnUse"
       id="clipPath5133">
      <circle
         style="opacity:1;fill:#b5de82;fill-opacity:1;fill-rule:nonzero;stroke:none;stroke-width:0.574;stroke-linecap:round;stroke-miterlimit:4;stroke-dasharray:1.722, 1.722;stroke-dashoffset:0;stroke-opacity:1"
         id="circle5135"
         cx="514.71118"
         cy="264.08365"
         r="7.9549513" />
    </clipPath>
    <clipPath
       clipPathUnits="userSpaceOnUse"
       id="clipPath5137">
      <circle
         style="opacity:1;fill:#b5de82;fill-opacity:1;fill-rule:nonzero;stroke:none;stroke-width:0.574;stroke-linecap:round;stroke-miterlimit:4;stroke-dasharray:1.722, 1.722;stroke-dashoffset:0;stroke-opacity:1"
         id="circle5139"
         cx="514.71118"
         cy="264.08365"
         r="7.9549513" />
    </clipPath>
  </defs>
  <sodipodi:namedview
     id="base"
     pagecolor="#ffffff"
     bordercolor="#666666"
     borderopacity="1.0"
     inkscape:pageopacity="0.0"
     inkscape:pageshadow="2"
     inkscape:zoom="1"
     inkscape:cx="460.64541"
     inkscape:cy="974.05638"
     inkscape:document-units="px"
     inkscape:current-layer="layer1"
     showgrid="false"
     inkscape:window-width="1920"
     inkscape:window-height="1028"
     inkscape:window-x="-8"
     inkscape:window-y="-8"
     inkscape:window-maximized="1" />
  <metadata
     id="metadata7">
    <rdf:RDF>
      <cc:Work
         rdf:about="">
        <dc:format>image/svg+xml</dc:format>
        <dc:type
           rdf:resource="http://purl.org/dc/dcmitype/StillImage" />
        <dc:title></dc:title>
      </cc:Work>
    </rdf:RDF>
  </metadata>
  <g
     inkscape:label="Layer 1"
     inkscape:groupmode="layer"
     id="layer1">
    <ellipse
       style="opacity:1;fill:none;fill-opacity:1;fill-rule:nonzero;stroke:#8f9898;stroke-width:0.574;stroke-linecap:round;stroke-miterlimit:4;stroke-dasharray:1.722, 1.722;stroke-dashoffset:0;stroke-opacity:1"
       id="path5056"
       cx="378.30212"
       cy="215.14778"
       r="147.07822" />
    <g
       sketch:type="MSPage"
       id="Page-1"
       style="fill:none;fill-rule:evenodd;stroke:none;stroke-width:1"
       transform="translate(27.769775,11.357891)">
      <g
         sketch:type="MSArtboardGroup"
         id="icon-70-document-code"
         style="fill:#929292">
        <path
           sketch:type="MSShapeGroup"
           id="document-code"
           d="M 19,3 9.0085302,3 C 7.8992496,3 7,3.8983383 7,5.0073299 L 7,27.99267 C 7,29.101288 7.8909254,30 8.9974219,30 L 24.002578,30 C 25.105724,30 26,29.109075 26,28.002578 L 26,11 21.005919,11 C 19.898081,11 19,10.113294 19,9.0018986 L 19,3 19,3 Z m 1,0 0,5.9970707 C 20,9.5509732 20.450975,10 20.990778,10 L 26,10 20,3 20,3 Z m -7,23 -4,-4 4,-4 0.7,0.7 -3.3,3.3 3.3,3.3 -0.7,0.7 0,0 z m 7,0 4,-4 -4,-4 -0.7,0.7 3.3,3.3 -3.3,3.3 0.7,0.7 0,0 z m -3,-8 -2,8 1,0 2,-8 -1,0 0,0 z"
           inkscape:connector-curvature="0" />
      </g>
    </g>
    <g
       sketch:type="MSPage"
       id="Page-1-6"
       style="fill:none;fill-rule:evenodd;stroke:none;stroke-width:1"
       transform="translate(46.11848,20.60048)">
      <g
         sketch:type="MSArtboardGroup"
         id="icon-72-documents"
         style="fill:#929292">
        <path
           sketch:type="MSShapeGroup"
           id="documents"
           d="M 8.9974219,3 C 9.0039651,1.8943826 9.9016946,1 11.00853,1 L 21,1 21,7.0018986 C 21,8.1132936 21.898081,9 23.005919,9 L 28,9 28,26.002578 C 28,27.109075 27.105724,28 26.002578,28 c -0.0065,1.105617 -0.899286,2 -2,2 -0.0065,1.105617 -0.899286,2 -2,2 L 6.9974219,32 C 5.8909254,32 5,31.101288 5,29.99267 L 5,7.0073299 C 5,5.8983383 5.8942762,5 6.9974219,5 7,3.8983383 7.8942762,3 8.9974219,3 l 0,0 z M 7,27.99267 C 7,29.101288 7.8909254,30 8.9974219,30 L 23,30.004543 C 23,30.544737 22.552303,31 22.00004,31 L 6.9999602,31 C 6.4547089,31 6,30.554319 6,30.004543 L 6,6.995457 C 6,6.4552629 6.4476974,6 6.9999602,6 L 7,27.99267 l 0,0 z M 8,4.995457 8,28.004543 C 8,28.554319 8.4547089,29 8.9999602,29 L 24.00004,29 C 24.552303,29 25,28.544737 25,28.004543 L 10.997422,28 C 9.8909254,28 9,27.101288 9,25.99267 L 9,4 C 8.4476974,4 8,4.4552629 8,4.995457 l 0,0 z M 22,1 22,6.9970707 C 22,7.5509732 22.450975,8 22.990778,8 L 28,8 22,1 22,1 Z"
           inkscape:connector-curvature="0" />
      </g>
    </g>
    <g
       sketch:type="MSPage"
       id="Page-1-54"
       style="fill:#097054;fill-opacity:1;fill-rule:evenodd;stroke:none;stroke-width:1"
       transform="translate(357.57287,325.5099)">
      <g
         sketch:type="MSArtboardGroup"
         id="icon-40-clipboard-list"
         style="fill:#097054;fill-opacity:1">
        <path
           sketch:type="MSShapeGroup"
           id="clipboard-list"
           d="M 13,5 13,3.9979131 C 13,2.8982606 13.897616,2 15.004882,2 l 0.990237,0 C 17.1061,2 18,2.8944962 18,3.9979131 L 18,5 20.004422,5 C 20.555163,5 21,5.4472481 21,5.9989566 l 0,1.0020868 C 21,7.5573397 20.554265,8 20.004422,8 L 10.995578,8 C 10.444837,8 10,7.5527519 10,7.0010434 L 10,5.9989566 C 10,5.4426603 10.445735,5 10.995578,5 L 13,5 13,5 Z m 8.999994,1 1.002584,0 C 24.109075,6 25,6.89704 25,8.0035949 L 25,28.996405 C 25,30.110237 24.105724,31 23.002578,31 L 7.9974219,31 C 6.8909254,31 6,30.10296 6,28.996405 L 6,8.0035949 C 6,6.8897632 6.8942762,6 7.9974219,6 L 9.0000058,6 C 9.0000019,6.0016267 9,6.0032539 9,6.0048815 l 0,0.990237 C 9,8.102384 9.8935427,9 11.00276,9 l 8.99448,0 C 21.103334,9 22,8.1061002 22,6.9951185 l 0,-0.990237 c 0,-0.00163 -2e-6,-0.00325 -6e-6,-0.00488 l 0,0 0,0 z M 15.5,5 C 15.776142,5 16,4.7761424 16,4.5 16,4.2238576 15.776142,4 15.5,4 15.223858,4 15,4.2238576 15,4.5 15,4.7761424 15.223858,5 15.5,5 l 0,0 z m -1.5,9 0,1 8,0 0,-1 -8,0 0,0 z m -5,-1 0,3 3,0 0,-3 -3,0 0,0 z m 1,1 0,1 1,0 0,-1 -1,0 0,0 z m -1,4 0,3 3,0 0,-3 -3,0 0,0 z m 1,1 0,1 1,0 0,-1 -1,0 0,0 z m 4,0 0,1 8,0 0,-1 -8,0 0,0 z m -5,4 0,3 3,0 0,-3 -3,0 0,0 z m 1,1 0,1 1,0 0,-1 -1,0 0,0 z m 4,0 0,1 8,0 0,-1 -8,0 0,0 z"
           inkscape:connector-curvature="0"
           style="fill:#097054;fill-opacity:1" />
      </g>
    </g>
    <g
       sketch:type="MSPage"
       id="Page-1-9"
       style="fill:none;fill-rule:evenodd;stroke:none;stroke-width:1"
       transform="translate(231.30935,209.27136)">
      <g
         sketch:type="MSArtboardGroup"
         id="icon-60-document-diagrams"
         style="fill:#929292">
        <path
           sketch:type="MSShapeGroup"
           id="document-diagrams"
           d="M 19,3 9.0085302,3 C 7.8992496,3 7,3.8983383 7,5.0073299 L 7,27.99267 C 7,29.101288 7.8909254,30 8.9974219,30 L 24.002578,30 C 25.105724,30 26,29.109075 26,28.002578 L 26,11 21.005919,11 C 19.898081,11 19,10.113294 19,9.0018986 L 19,3 19,3 Z m 1,0 0,5.9970707 C 20,9.5509732 20.450975,10 20.990778,10 L 26,10 20,3 20,3 Z m -9,18 0,4 3,0 0,-4 -3,0 0,0 z m 4,-5 0,9 3,0 0,-9 -3,0 0,0 z m 4,3 0,6 3,0 0,-6 -3,0 0,0 z"
           inkscape:connector-curvature="0" />
      </g>
    </g>
    <g
       sketch:type="MSPage"
       id="Page-1-2"
       style="fill:none;fill-rule:evenodd;stroke:none;stroke-width:1"
       transform="translate(73.43961,22.728861)">
      <g
         sketch:type="MSArtboardGroup"
         id="icon-65-document-image"
         style="fill:#929292">
        <path
           sketch:type="MSShapeGroup"
           id="document-image"
           d="M 22,24.045728 22,18 l -11,0 0,7 0,0 2.5,-2 1.457939,1.249662 L 18.59303,21 22,24.045728 l 0,0 0,0 z M 19,3 9.0085302,3 C 7.8992496,3 7,3.8983383 7,5.0073299 L 7,27.99267 C 7,29.101288 7.8909254,30 8.9974219,30 L 24.002578,30 C 25.105724,30 26,29.109075 26,28.002578 L 26,11 21.005919,11 C 19.898081,11 19,10.113294 19,9.0018986 L 19,3 19,3 Z m 1,0 0,5.9970707 C 20,9.5509732 20.450975,10 20.990778,10 L 26,10 20,3 20,3 Z m -10,14 0,10 13,0 0,-10 -13,0 0,0 z m 4,4 c 0.552285,0 1,-0.447715 1,-1 0,-0.552285 -0.447715,-1 -1,-1 -0.552285,0 -1,0.447715 -1,1 0,0.552285 0.447715,1 1,1 l 0,0 z"
           inkscape:connector-curvature="0" />
      </g>
    </g>
    <path
       id="path4902"
       d="m 517.44472,269.53767 c -1.73853,0.87354 -2.44024,2.99261 -1.56606,4.73234 0.87325,1.73789 2.99382,2.44261 4.73232,1.56907 1.73915,-0.87387 2.42899,-2.99076 1.55577,-4.72865 -0.8742,-1.73973 -2.98292,-2.44661 -4.72203,-1.57276 z m 8.80567,1.78732 0.11951,1.6524 2.01138,1.47958 0.26559,0.19533 -0.69837,2.10902 -2.84953,0.0694 -1.08511,1.24846 0.37352,2.47305 0.053,0.32652 -1.98403,0.99692 -2.06342,-1.96639 -1.65059,0.12306 -1.4838,2.01049 -0.19655,0.26315 -2.10779,-0.69746 -0.0714,-2.85018 -1.24969,-1.08298 -2.46886,0.37299 -0.32717,0.0501 -0.99629,-1.98279 1.9676,-2.0656 -0.12251,-1.64785 -2.01049,-1.48536 -0.26437,-0.19444 0.69715,-2.10535 2.8517,-0.0728 1.08176,-1.25061 -0.37346,-2.47153 -0.052,-0.32625 1.98343,-0.9966 2.06559,1.96914 1.64723,-0.1207 1.48412,-2.0114 0.19807,-0.26622 2.10656,0.69655 0.0703,2.84835 1.24882,1.08574 2.47519,-0.37523 0.32448,-0.0506 0.99601,1.9822 -1.96549,2.06829 z"
       inkscape:connector-curvature="0"
       style="opacity:1;fill:#929292;fill-opacity:1;fill-rule:nonzero"
       inkscape:transform-center-y="-1.0160599"
       inkscape:transform-center-x="0.113205" />
    <path
       id="path4937"
       d="m 503.76892,249.47975 c -2.67509,0.87423 -4.13604,3.75363 -3.2612,6.4306 0.87392,2.67413 3.75482,4.13973 6.42992,3.26551 2.67603,-0.87453 4.11958,-3.75341 3.24566,-6.42753 -0.87488,-2.67696 -3.73837,-4.1431 -6.41438,-3.26858 z m 12.20885,4.45676 -0.18579,2.38918 2.55751,2.55031 0.33772,0.33671 -1.45404,2.86575 -4.09063,-0.51558 -1.82143,1.55149 4.6e-4,3.61777 0.005,0.47845 -3.05285,0.99768 -2.52692,-3.25779 -2.38735,-0.18017 -2.55613,2.55532 -0.33792,0.33397 -2.86419,-1.45246 0.5131,-4.09194 -1.55368,-1.81865 -3.61163,5e-4 -0.47875,8.8e-4 -0.99707,-3.05096 3.26,-2.52974 0.18046,-2.38333 -2.55502,-2.55837 -0.33618,-0.33517 1.45151,-2.86076 4.09443,0.51125 1.81712,-1.55523 -8.1e-4,-3.61562 -0.004,-0.4778 3.05189,-0.99736 2.52943,3.26218 2.38204,0.18294 2.55681,-2.5566 0.34074,-0.33799 2.86265,1.45087 -0.51401,4.08912 1.55181,1.82243 3.6212,-0.004 0.47502,-0.004 0.99676,3.05004 -3.25753,2.53407 z"
       inkscape:connector-curvature="0"
       style="opacity:1;fill:#929292;fill-opacity:1;fill-rule:nonzero" />
    <path
       style="opacity:1;fill:#ffffff;fill-opacity:1;fill-rule:nonzero;stroke:#000000;stroke-width:0.51139176;stroke-linecap:round;stroke-miterlimit:4;stroke-dasharray:1.5341753, 1.5341753;stroke-dashoffset:0;stroke-opacity:1"
       d="m 479.56532,255.24439 37.24623,0 c 3.9231,0 7.08139,3.15552 7.08139,7.07516 l 0,20.09217 c 0,3.91964 -3.15829,7.07518 -7.08139,7.07518 l -37.24623,0 c -3.9231,0 -7.0814,-3.15554 -7.0814,-7.07518 l 0,-20.09217 c 0,-3.91964 3.1583,-7.07516 7.0814,-7.07516 z"
       id="path5081"
       inkscape:connector-curvature="0" />
    <path
       inkscape:connector-curvature="0"
       id="path5083"
       d="m 488.57617,227.37109 c -4.42635,0 -7.98828,3.94995 -7.98828,8.85547 l 0,19.04883 -6.38086,0 c -4.40339,0 -7.94922,3.5419 -7.94922,7.94141 l 0,22.55273 c 0,4.39951 3.54583,7.94141 7.94922,7.94141 l 41.80664,0 c 4.40339,0 7.94727,-3.5419 7.94727,-7.94141 l 0,-1.79101 26.49609,0 c 4.42636,0 7.98828,-3.94995 7.98828,-8.85547 l 0,-38.89649 c 0,-4.90552 -3.56192,-8.85547 -7.98828,-8.85547 l -61.88086,0 z"
       style="opacity:1;fill:none;fill-opacity:1;fill-rule:nonzero;stroke:#000000;stroke-width:0.55790454;stroke-linecap:round;stroke-miterlimit:4;stroke-dasharray:none;stroke-dashoffset:0;stroke-opacity:1" />
    <path
       inkscape:connector-curvature="0"
       id="path5085"
       d="m 475.26686,255.52569 40.62164,0 c 4.27863,0 7.72314,3.39684 7.72314,7.61622 l 0,21.62868 c 0,4.21938 -3.44451,7.61622 -7.72314,7.61622 l -40.62164,0 c -4.27862,0 -7.72315,-3.39684 -7.72315,-7.61622 l 0,-21.62868 c 0,-4.21938 3.44453,-7.61622 7.72315,-7.61622 z"
       style="opacity:1;fill:#ffffff;fill-opacity:1;fill-rule:nonzero;stroke:none;stroke-width:0.57390523;stroke-linecap:round;stroke-miterlimit:4;stroke-dasharray:none;stroke-dashoffset:0;stroke-opacity:1" />
    <path
       id="path3776"
       d="m 534.38954,240.51032 c -3.3969,-0.65977 -6.68786,1.56072 -7.3481,4.95999 -0.65954,3.39569 1.55979,6.69257 4.95669,7.35234 3.3981,0.66001 6.67004,-1.57036 7.32957,-4.966 0.6602,-3.39927 -1.5401,-6.68633 -4.93816,-7.34633 z m 10.45386,12.08679 -1.62783,2.45603 1.22348,4.26904 0.16158,0.56366 -3.2754,2.20998 -4.08705,-2.99926 -2.88449,0.57821 -2.16213,3.88746 -0.28033,0.51724 -3.87658,-0.75294 -0.76766,-5.01093 -2.45742,-1.62069 -4.27399,1.21762 -0.56273,0.15684 -2.20922,-3.27276 2.99736,-4.08993 -0.58223,-2.88284 -3.88089,-2.15841 -0.51514,-0.28485 0.75248,-3.87419 5.01497,-0.76937 1.61859,-2.45292 -1.21595,-4.27623 -0.16085,-0.56106 3.26969,-2.20612 4.09373,2.99688 2.88211,-0.58482 2.16045,-3.88534 0.28131,-0.51579 3.87536,0.75271 0.76773,5.01714 2.45009,1.62047 4.27546,-1.21856 0.56818,-0.15948 2.20852,3.27014 -2.99668,4.08637 0.57796,2.88575 3.89244,2.16182 0.51226,0.28063 -0.75225,3.873 -5.01493,0.7755 z"
       inkscape:connector-curvature="0"
       style="opacity:1;fill:#929292;fill-opacity:1;fill-rule:nonzero" />
    <path
       style="fill:#ff9900;fill-opacity:1;fill-rule:evenodd;stroke:none;stroke-width:1"
       d="m 380.30818,73.91269 c -1.10684,0 -2.00277,0.89438 -2.00977,2 -1.10314,0 -1.997,0.89834 -2,2 -1.10314,0 -1.99805,0.89882 -1.99805,2.00781 l 0,22.98438 c 0,1.10862 0.89156,2.00781 1.99805,2.00781 l 15.00391,0 c 1.10071,0 1.994,-0.89438 2,-2 1.10071,0 1.994,-0.89438 2,-2 1.10314,0 1.99804,-0.89156 1.99804,-1.99805 l 0,-17.00195 -4.99414,0 c -1.10784,0 -2.00586,-0.88666 -2.00586,-1.99805 l 0,-6.00195 -9.99218,0 z m 10.99218,0 0,5.99805 c 0,0.5539 0.45043,1.00195 0.99024,1.00195 l 5.00976,0 -6,-7 z m -13,3 0,21.99219 c 0,1.10862 0.89156,2.00781 1.99805,2.00781 l 14.00195,0.004 c 0,0.5402 -0.44774,0.99609 -1,0.99609 l -15,0 c -0.54525,0 -1,-0.44631 -1,-0.99609 l 0,-23.00782 c 0,-0.5402 0.4477,-0.99609 1,-0.99609 z m -2,2 0,21.99414 c 10e-4,1.10771 0.89222,2.00586 1.99805,2.00586 l 14.00195,0.006 c 0,0.5402 -0.44774,0.99414 -1,0.99414 l -15,0 c -0.54525,0 -1,-0.44436 -1,-0.99414 l 0,-23.00977 c 0,-0.5402 0.44774,-0.99609 1,-0.99609 z m 8.01758,10.01562 0.69922,0.69922 -3.29883,3.30078 3.29883,3.30079 -0.69922,0.69921 -4,-4 4,-4 z m 4,0 1,0 -2,8 -1,0 2,-8 z m 3,0 4,4 -4,4 -0.69922,-0.69921 3.29883,-3.30079 -3.29883,-3.30078 0.69922,-0.69922 z"
       id="path4633"
       inkscape:connector-curvature="0" />
    <path
       inkscape:connector-curvature="0"
       id="path4722"
       d="m 106.52342,27.74027 -4,4 4,4 0.69922,-0.69922 -3.29883,-3.30078 3.29883,-3.30078 -0.69922,-0.69922 z m 4,0 -2,8 1,0 2,-8 -1,0 z m 3,0 -0.69922,0.69922 3.29883,3.30078 -3.29883,3.30078 0.69922,0.69922 4,-4 -4,-4 z"
       style="opacity:1;fill:#ff0000;fill-opacity:1;fill-rule:nonzero;stroke:none;stroke-opacity:1" />
    <path
       style="fill:#6599ff;fill-opacity:1;fill-rule:evenodd;stroke:none;stroke-width:1"
       d="m 499.50434,171.54873 c -1.10684,0 -2.00471,0.89438 -2.01171,2 -1.10314,0 -1.997,0.89834 -2,2 -1.10314,0 -1.9961,0.89882 -1.9961,2.00781 l 0,22.98438 c 0,1.10862 0.88961,2.00781 1.9961,2.00781 l 15.00585,0 c 1.10071,0 1.993,-0.89438 2,-2 1.10071,0 1.993,-0.89438 2,-2 1.10315,0 1.99805,-0.89156 1.99805,-1.99805 l 0,-17.00195 -4.99414,0 c -1.10784,0 -2.00586,-0.88666 -2.00586,-1.99805 l 0,-6.00195 -9.99219,0 z m 10.99219,0 0,5.99805 c 0,0.5539 0.45043,1.00195 0.99024,1.00195 l 5.00976,0 -6,-7 z m -13,3 0,21.99219 c 0,1.10862 0.88961,2.00781 1.9961,2.00781 l 14.0039,0.004 c 0,0.5402 -0.44774,0.99609 -1,0.99609 l -15,0 c -0.54525,0 -1,-0.44631 -1,-0.99609 l 0,-23.00782 0,-0.002 c 0,-0.5402 0.4477,-0.99414 1,-0.99414 z m -2,2 0,21.99219 c 0,1.10862 0.88961,2.00781 1.9961,2.00781 l 14.0039,0.006 c 0,0.5402 -0.44774,0.99414 -1,0.99414 l -15,0 c -0.54525,0 -1,-0.44436 -1,-0.99414 l 0,-23.00977 c 0,-0.5402 0.44774,-0.99609 1,-0.99609 z m 4.88672,9 13,0 0,10 -13,0 0,-10 z m 1,1 0,7 2.5,-2 1.45703,1.25 3.63672,-3.25 3.40625,3.04492 0,-6.04492 -11,0 z m 3,1 c 0.55228,0 1,0.44772 1,1 0,0.55228 -0.44772,1 -1,1 -0.55228,0 -1,-0.44772 -1,-1 0,-0.55228 0.44772,-1 1,-1 z"
       id="path4729"
       inkscape:connector-curvature="0" />
    <path
       inkscape:connector-curvature="0"
       id="path4768"
       d="m 104.02539,10.72461 0,10 13,0 0,-10 -13,0 z m 1,1 11,0 0,6.04492 -3.40625,-3.04492 -3.63672,3.25 -1.45703,-1.25 -2.5,2 0,-7 z m 3,1 c -0.55228,0 -1,0.44772 -1,1 0,0.55228 0.44772,1 1,1 0.55228,0 1,-0.44772 1,-1 0,-0.55228 -0.44772,-1 -1,-1 z"
       style="opacity:1;fill:#ff0000;fill-opacity:1;fill-rule:nonzero;stroke:none;stroke-opacity:1" />
    <g
       sketch:type="MSPage"
       id="Page-1-91"
       style="fill:none;fill-rule:evenodd;stroke:none;stroke-width:1"
       transform="translate(203.49368,172.13179)">
      <g
         sketch:type="MSArtboardGroup"
         id="icon-79-document-cancel"
         style="fill:#929292">
        <path
           sketch:type="MSShapeGroup"
           id="document-cancel"
           d="m 21.5,26.207107 -2.12132,2.12132 -0.707107,-0.707107 2.12132,-2.12132 -2.12132,-2.12132 0.707107,-0.707107 2.12132,2.12132 2.12132,-2.12132 0.707107,0.707107 -2.12132,2.12132 2.12132,2.12132 -0.707107,0.707107 -2.12132,-2.12132 0,0 z M 16.021818,29 6.9974219,29 C 5.8909254,29 5,28.101288 5,26.99267 L 5,4.0073299 C 5,2.8983383 5.8992496,2 7.0085302,2 L 17,2 17,8.0018986 C 17,9.1132936 17.898081,10 19.005919,10 L 24,10 24,19.498163 C 23.230408,19.177228 22.385901,19 21.5,19 17.910149,19 15,21.910149 15,25.5 c 0,1.288642 0.374996,2.489699 1.021818,3.5 l 0,0 0,0 z M 18,2 18,7.9970707 C 18,8.5509732 18.450975,9 18.990778,9 L 24,9 18,2 18,2 Z m 3.5,29 C 24.537566,31 27,28.537566 27,25.5 27,22.462434 24.537566,20 21.5,20 18.462434,20 16,22.462434 16,25.5 c 0,3.037566 2.462434,5.5 5.5,5.5 l 0,0 z"
           inkscape:connector-curvature="0" />
      </g>
    </g>
    <g
       sketch:type="MSPage"
       id="Page-1-35"
       style="fill:none;fill-rule:evenodd;stroke:none;stroke-width:1"
       transform="translate(41.32516,48.335111)">
      <g
         sketch:type="MSArtboardGroup"
         id="icon-81-document-add"
         style="fill:#929292">
        <path
           sketch:type="MSShapeGroup"
           id="document-add"
           d="m 21,25 0,-3 1,0 0,3 3,0 0,1 -3,0 0,3 -1,0 0,-3 -3,0 0,-1 3,0 0,0 z m -4.978182,4 -9.0243961,0 C 5.8909254,29 5,28.101288 5,26.99267 L 5,4.0073299 C 5,2.8983383 5.8992496,2 7.0085302,2 L 17,2 17,8.0018986 C 17,9.1132936 17.898081,10 19.005919,10 L 24,10 24,19.498163 C 23.230408,19.177228 22.385901,19 21.5,19 17.910149,19 15,21.910149 15,25.5 c 0,1.288642 0.374996,2.489699 1.021818,3.5 l 0,0 0,0 z M 18,2 18,7.9970707 C 18,8.5509732 18.450975,9 18.990778,9 L 24,9 18,2 18,2 Z m 3.5,29 C 24.537566,31 27,28.537566 27,25.5 27,22.462434 24.537566,20 21.5,20 18.462434,20 16,22.462434 16,25.5 c 0,3.037566 2.462434,5.5 5.5,5.5 l 0,0 z"
           inkscape:connector-curvature="0" />
      </g>
    </g>
    <g
       sketch:type="MSPage"
       id="Page-1-1"
       style="fill:none;fill-rule:evenodd;stroke:none;stroke-width:1"
       transform="translate(16.114488,12.198031)">
      <g
         sketch:type="MSArtboardGroup"
         id="icon-82-document-remove"
         style="fill:#929292">
        <path
           sketch:type="MSShapeGroup"
           id="document-remove"
           d="M 16.021818,29 6.9974219,29 C 5.8909254,29 5,28.101288 5,26.99267 L 5,4.0073299 C 5,2.8983383 5.8992496,2 7.0085302,2 L 17,2 17,8.0018986 C 17,9.1132936 17.898081,10 19.005919,10 L 24,10 24,19.498163 C 23.230408,19.177228 22.385901,19 21.5,19 17.910149,19 15,21.910149 15,25.5 c 0,1.288642 0.374996,2.489699 1.021818,3.5 l 0,0 0,0 z M 18,2 18,7.9970707 C 18,8.5509732 18.450975,9 18.990778,9 L 24,9 18,2 18,2 Z m 3.5,29 C 24.537566,31 27,28.537566 27,25.5 27,22.462434 24.537566,20 21.5,20 18.462434,20 16,22.462434 16,25.5 c 0,3.037566 2.462434,5.5 5.5,5.5 l 0,0 z m -3.5,-6 0,1 7,0 0,-1 -7,0 0,0 z"
           inkscape:connector-curvature="0" />
      </g>
    </g>
    <g
       sketch:type="MSPage"
       id="Page-1-68"
       style="fill:none;fill-rule:evenodd;stroke:none;stroke-width:1"
       transform="translate(8.8779402,52.881051)">
      <g
         sketch:type="MSArtboardGroup"
         id="icon-83-document-forbidden"
         style="fill:#929292">
        <path
           sketch:type="MSShapeGroup"
           id="document-forbidden"
           d="M 25.768361,22.031135 C 26.538394,22.97749 27,24.184838 27,25.5 27,28.537566 24.537566,31 21.5,31 20.184838,31 18.97749,30.538394 18.031135,29.768361 l 7.737226,-7.737226 0,0 z M 25.069639,21.315644 C 24.108945,20.495299 22.862314,20 21.5,20 18.462434,20 16,22.462434 16,25.5 c 0,1.362314 0.495299,2.608945 1.315644,3.569639 l 7.753995,-7.753995 0,0 z M 16.021818,29 6.9974219,29 C 5.8909254,29 5,28.101288 5,26.99267 L 5,4.0073299 C 5,2.8983383 5.8992496,2 7.0085302,2 L 17,2 17,8.0018986 C 17,9.1132936 17.898081,10 19.005919,10 L 24,10 24,19.498163 C 23.230408,19.177228 22.385901,19 21.5,19 17.910149,19 15,21.910149 15,25.5 c 0,1.288642 0.374996,2.489699 1.021818,3.5 l 0,0 0,0 z M 18,2 18,7.9970707 C 18,8.5509732 18.450975,9 18.990778,9 L 24,9 18,2 18,2 Z"
           inkscape:connector-curvature="0" />
      </g>
    </g>
    <g
       sketch:type="MSPage"
       id="Page-1-81"
       style="fill:none;fill-rule:evenodd;stroke:none;stroke-width:1"
       transform="translate(24.767029,39.448551)">
      <g
         sketch:type="MSArtboardGroup"
         id="icon-78-document-error"
         style="fill:#929292">
        <path
           sketch:type="MSShapeGroup"
           id="document-error"
           d="M 14.006944,29 6.9974219,29 C 5.8909254,29 5,28.101288 5,26.99267 L 5,4.0073299 C 5,2.8983383 5.8992496,2 7.0085302,2 L 17,2 17,8.0018986 C 17,9.1132936 17.898081,10 19.005919,10 L 24,10 24,23.929412 20.5,18 l -6.493056,11 0,0 0,0 z M 18,2 18,7.9970707 C 18,8.5509732 18.450975,9 18.990778,9 L 24,9 18,2 18,2 Z m 2.5,18 6.5,11 -13,0 6.5,-11 0,0 z m -0.5,4 0,3 1,0 0,-3 -1,0 0,0 z m 0,4 0,1 1,0 0,-1 -1,0 0,0 z"
           inkscape:connector-curvature="0" />
      </g>
    </g>
    <g
       sketch:type="MSPage"
       id="Page-1-8"
       style="fill:none;fill-rule:evenodd;stroke:none;stroke-width:1"
       transform="translate(255.43354,172.4052)">
      <g
         sketch:type="MSArtboardGroup"
         id="icon-80-document-checked"
         style="fill:#929292">
        <path
           sketch:type="MSShapeGroup"
           id="document-checked"
           d="M 16.021818,29 6.9974219,29 C 5.8909254,29 5,28.101288 5,26.99267 L 5,4.0073299 C 5,2.8983383 5.8992496,2 7.0085302,2 L 17,2 17,8.0018986 C 17,9.1132936 17.898081,10 19.005919,10 L 24,10 24,19.498163 C 23.230408,19.177228 22.385901,19 21.5,19 17.910149,19 15,21.910149 15,25.5 c 0,1.288642 0.374996,2.489699 1.021818,3.5 l 0,0 0,0 z M 18,2 18,7.9970707 C 18,8.5509732 18.450975,9 18.990778,9 L 24,9 18,2 18,2 Z m 3.5,29 C 24.537566,31 27,28.537566 27,25.5 27,22.462434 24.537566,20 21.5,20 18.462434,20 16,22.462434 16,25.5 c 0,3.037566 2.462434,5.5 5.5,5.5 l 0,0 z M 21,28.242641 18.646447,25.889087 19.37868,25.156854 21,26.778175 24.12132,23.656854 24.853553,24.389087 21,28.242641 l 0,0 z"
           inkscape:connector-curvature="0" />
      </g>
    </g>
    <path
       style="opacity:1;fill:#ffffff;fill-opacity:1;fill-rule:nonzero;stroke:none;stroke-opacity:1"
       d="m 267.02342,189.74027 -4,4 4,4 0.69922,-0.69922 -3.29883,-3.30078 3.29883,-3.30078 -0.69922,-0.69922 z m 4,0 -2,8 1,0 2,-8 -1,0 z m 3,0 -0.69922,0.69922 3.29883,3.30078 -3.29883,3.30078 0.69922,0.69922 4,-4 -4,-4 z"
       id="path4886"
       inkscape:connector-curvature="0" />
    <circle
       style="opacity:1;fill:#939393;fill-opacity:1;fill-rule:nonzero;stroke:none;stroke-opacity:1"
       id="path4888"
       cx="275.91504"
       cy="194.99226"
       r="2.563262" />
    <path
       inkscape:connector-curvature="0"
       id="path4896"
       d="m 214.16719,189.74027 -4,4 4,4 0.69922,-0.69922 -3.29883,-3.30078 3.29883,-3.30078 -0.69922,-0.69922 z m 4,0 -2,8 1,0 2,-8 -1,0 z m 3,0 -0.69922,0.69922 3.29883,3.30078 -3.29883,3.30078 0.69922,0.69922 4,-4 -4,-4 z"
       style="opacity:1;fill:#ffffff;fill-opacity:1;fill-rule:nonzero;stroke:none;stroke-opacity:1" />
    <ellipse
       cy="193.66643"
       cx="223.41235"
       id="circle4898"
       style="opacity:1;fill:#939393;fill-opacity:1;fill-rule:nonzero;stroke:none;stroke-opacity:1"
       rx="1.8561552"
       ry="1.7677668" />
    <ellipse
       ry="1.7677668"
       rx="1.8561552"
       style="opacity:1;fill:#939393;fill-opacity:1;fill-rule:nonzero;stroke:none;stroke-opacity:1"
       id="ellipse4900"
       cx="221.11426"
       cy="197.02519" />
    <rect
       style="opacity:1;fill:none;fill-opacity:1;fill-rule:nonzero;stroke:#000000;stroke-width:0.41434264;stroke-linecap:round;stroke-miterlimit:4;stroke-dasharray:0.82868528, 0.82868528;stroke-dashoffset:0;stroke-opacity:1"
       id="rect4912"
       width="51.585663"
       height="28.175299"
       x="443.20715"
       y="121.06938"
       ry="8.5697956" />
    <g
       sketch:type="MSPage"
       id="Page-1-5"
       style="fill:#939393;fill-opacity:1;fill-rule:evenodd;stroke:none;stroke-width:1"
       transform="translate(468.90101,257.64712)">
      <g
         sketch:type="MSArtboardGroup"
         id="icon-32-clipboard-edit"
         style="fill:#939393;fill-opacity:1">
        <path
           sketch:type="MSShapeGroup"
           id="clipboard-edit"
           d="m 26.443228,13.150335 -11.286215,11.299571 0,0 -2.605566,-2.605566 11.292091,-11.293695 2.59969,2.59969 0,0 z m 0.706688,-0.707525 1.729179,-1.731226 c 0.389974,-0.390435 0.3871,-1.0250798 -0.0048,-1.415899 L 27.694487,8.11911 C 27.301865,7.7275656 26.669258,7.7245247 26.277913,8.1159253 l -1.727318,1.7275629 2.599321,2.5993218 0,0 z m -15.24621,10.168003 -0.639546,3.112697 3.134905,-0.617339 -2.495359,-2.495358 0,0 0,0 z M 22,11 22,8.0035949 C 22,6.89704 21.109075,6 20.002578,6 l -1.002584,0 0,0 c 4e-6,0.00163 6e-6,0.00325 6e-6,0.00488 l 0,0.990237 C 19,8.1061002 18.103334,9 16.99724,9 L 8.0027601,9 C 6.8935426,9 6,8.102384 6,6.9951185 l 0,-0.990237 c 0,-0.00163 1.9e-6,-0.00325 5.8e-6,-0.00488 L 4.9974219,6 C 3.8942762,6 3,6.8897632 3,8.0035949 L 3,28.996405 C 3,30.10296 3.8909254,31 4.9974219,31 L 20.002578,31 C 21.105724,31 22,30.110237 22,28.996405 L 22,19 29.580107,11.419893 c 0.784185,-0.784185 0.786081,-2.0537049 0.0096,-2.8301434 L 28.41025,7.4102504 C 27.631391,6.6313906 26.372781,6.627219 25.580107,7.4198933 L 22,11 l 0,0 0,0 z M 10,5 10,3.9979131 C 10,2.8982606 10.897616,2 12.004882,2 l 0.990237,0 C 14.1061,2 15,2.8944962 15,3.9979131 L 15,5 17.004422,5 C 17.555163,5 18,5.4472481 18,5.9989566 l 0,1.0020868 C 18,7.5573397 17.554265,8 17.004422,8 L 7.9955775,8 C 7.444837,8 7,7.5527519 7,7.0010434 L 7,5.9989566 C 7,5.4426603 7.4457352,5 7.9955775,5 L 10,5 10,5 Z m 2.5,0 C 12.776142,5 13,4.7761424 13,4.5 13,4.2238576 12.776142,4 12.5,4 12.223858,4 12,4.2238576 12,4.5 12,4.7761424 12.223858,5 12.5,5 l 0,0 z"
           inkscape:connector-curvature="0"
           style="fill:#939393;fill-opacity:1" />
      </g>
    </g>
    <path
       style="opacity:1;fill:#929292;fill-opacity:1;fill-rule:nonzero"
       inkscape:connector-curvature="0"
       d="m 503.76892,249.47975 c -2.67509,0.87423 -4.13604,3.75363 -3.2612,6.4306 0.87392,2.67413 3.75482,4.13973 6.42992,3.26551 2.67603,-0.87453 4.11958,-3.75341 3.24566,-6.42753 -0.87488,-2.67696 -3.73837,-4.1431 -6.41438,-3.26858 z m 12.20885,4.45676 -0.18579,2.38918 2.55751,2.55031 0.33772,0.33671 -1.45404,2.86575 -4.09063,-0.51558 -1.82143,1.55149 4.6e-4,3.61777 0.005,0.47845 -3.05285,0.99768 -2.52692,-3.25779 -2.38735,-0.18017 -2.55613,2.55532 -0.33792,0.33397 -2.86419,-1.45246 0.5131,-4.09194 -1.55368,-1.81865 -3.61163,5e-4 -0.47875,8.8e-4 -0.99707,-3.05096 3.26,-2.52974 0.18046,-2.38333 -2.55502,-2.55837 -0.33618,-0.33517 1.45151,-2.86076 4.09443,0.51125 1.81712,-1.55523 -8.1e-4,-3.61562 -0.004,-0.4778 3.05189,-0.99736 2.52943,3.26218 2.38204,0.18294 2.55681,-2.5566 0.34074,-0.33799 2.86265,1.45087 -0.51401,4.08912 1.55181,1.82243 3.6212,-0.004 0.47502,-0.004 0.99676,3.05004 -3.25753,2.53407 z"
       id="path5129"
       clip-path="url(#clipPath5137)" />
    <g
       sketch:type="MSPage"
       id="Page-1-3"
       style="fill:#000000;fill-opacity:1;fill-rule:evenodd;stroke:none;stroke-width:1;stroke-opacity:1"
       transform="matrix(-1.2145687,0,0,1.2145687,532.25954,246.50201)">
      <g
         sketch:type="MSArtboardGroup"
         id="icon-111-search"
         style="fill:#000000;fill-opacity:1;stroke:none;stroke-opacity:1">
        <path
           sketch:type="MSShapeGroup"
           id="search"
           d="M 19.427116,21.427116 C 18.03725,22.41748 16.336652,23 14.5,23 9.8055794,23 6,19.194421 6,14.5 6,9.8055794 9.8055794,6 14.5,6 c 4.694421,0 8.5,3.8055794 8.5,8.5 0,1.836652 -0.58252,3.53725 -1.572884,4.927116 l 5.584802,5.584802 c 0.550201,0.550201 0.545613,1.430551 -2e-4,1.976363 l -0.02344,0.02344 c -0.544416,0.544417 -1.430661,0.545902 -1.976363,2e-4 l -5.584802,-5.584802 0,0 z M 14.5,21 C 18.089851,21 21,18.089851 21,14.5 21,10.910149 18.089851,8 14.5,8 10.910149,8 8,10.910149 8,14.5 8,18.089851 10.910149,21 14.5,21 l 0,0 z"
           inkscape:connector-curvature="0"
           style="fill:#000000;fill-opacity:1;stroke:none;stroke-opacity:1" />
      </g>
    </g>
    <path
       inkscape:transform-center-x="0.113205"
       inkscape:transform-center-y="-1.0160599"
       style="opacity:1;fill:#929292;fill-opacity:1;fill-rule:nonzero"
       inkscape:connector-curvature="0"
       d="m 517.44472,269.53767 c -1.73853,0.87354 -2.44024,2.99261 -1.56606,4.73234 0.87325,1.73789 2.99382,2.44261 4.73232,1.56907 1.73915,-0.87387 2.42899,-2.99076 1.55577,-4.72865 -0.8742,-1.73973 -2.98292,-2.44661 -4.72203,-1.57276 z m 8.80567,1.78732 0.11951,1.6524 2.01138,1.47958 0.26559,0.19533 -0.69837,2.10902 -2.84953,0.0694 -1.08511,1.24846 0.37352,2.47305 0.053,0.32652 -1.98403,0.99692 -2.06342,-1.96639 -1.65059,0.12306 -1.4838,2.01049 -0.19655,0.26315 -2.10779,-0.69746 -0.0714,-2.85018 -1.24969,-1.08298 -2.46886,0.37299 -0.32717,0.0501 -0.99629,-1.98279 1.9676,-2.0656 -0.12251,-1.64785 -2.01049,-1.48536 -0.26437,-0.19444 0.69715,-2.10535 2.8517,-0.0728 1.08176,-1.25061 -0.37346,-2.47153 -0.052,-0.32625 1.98343,-0.9966 2.06559,1.96914 1.64723,-0.1207 1.48412,-2.0114 0.19807,-0.26622 2.10656,0.69655 0.0703,2.84835 1.24882,1.08574 2.47519,-0.37523 0.32448,-0.0506 0.99601,1.9822 -1.96549,2.06829 z"
       id="path5131"
       clip-path="url(#clipPath5133)" />
    <g
       id="Page-1-25"
       style="fill:none;fill-rule:evenodd;stroke:none;stroke-width:1"
       transform="translate(453,120.36221)">
      <g
         id="icon-72-lightning"
         style="fill:#929292">
        <path
           id="lightning"
           d="M 13.545455,17 11,17 l 3,-8 6,0 -1.5,4 3.5,0 -11,11 2.545455,-7 0,0 z"
           inkscape:connector-curvature="0" />
      </g>
    </g>
  </g>
</svg>
