<?xml version="1.0" encoding="UTF-8" standalone="no"?>
<!-- Created with Inkscape (http://www.inkscape.org/) -->

<svg
   xmlns:sketch="http://www.bohemiancoding.com/sketch/ns"
   xmlns:dc="http://purl.org/dc/elements/1.1/"
   xmlns:cc="http://creativecommons.org/ns#"
   xmlns:rdf="http://www.w3.org/1999/02/22-rdf-syntax-ns#"
   xmlns:svg="http://www.w3.org/2000/svg"
   xmlns="http://www.w3.org/2000/svg"
   xmlns:sodipodi="http://sodipodi.sourceforge.net/DTD/sodipodi-0.dtd"
   xmlns:inkscape="http://www.inkscape.org/namespaces/inkscape"
   width="210mm"
   height="297mm"
   viewBox="0 0 744.09448819 1052.3622047"
   id="svg2"
   version="1.1"
   inkscape:version="0.91 r13725"
   sodipodi:docname="overview.svg">
  <defs
     id="defs4">
    <clipPath
       id="clipPath3352"
       clipPathUnits="userSpaceOnUse">
      <path
         style="clip-rule:evenodd"
         inkscape:connector-curvature="0"
         id="path3354"
         d="m 190,290 -99.9141,0 C 78.9922,290 70,281.016 70,269.926 L 70,40.0742 C 70,28.9883 78.9102,20 89.9727,20 L 240.027,20 C 251.059,20 260,28.9102 260,39.9727 L 260,210 210.059,210 C 198.98,210 190,218.867 190,229.98 l 0,60.02 0,0 z m 10,0 0,-59.969 C 200,224.492 204.508,220 209.906,220 l 50.094,0 -60,70 0,0 z m -70,-230 -40,40 40,40 7,-7 -33,-33 33,-33 -7,-7 0,0 z m 70,0 40,40 -40,40 -7,-7 33,-33 -33,-33 7,-7 0,0 z m -30,80 -20,-80 10,0 20,80 -10,0 0,0 z" />
    </clipPath>
    <clipPath
       id="clipPath3358"
       clipPathUnits="userSpaceOnUse">
      <path
         inkscape:connector-curvature="0"
         id="path3360"
         d="M 0,0 320,0 320,320 0,320 0,0 Z" />
    </clipPath>
    <mask
       maskUnits="userSpaceOnUse"
       id="mask4663">
      <path
         style="fill:#929292;fill-rule:evenodd;stroke:none;stroke-width:1"
         inkscape:connector-curvature="0"
         d="m 355.66413,101.05537 -9.99147,0 c -1.10928,0 -2.00853,0.89834 -2.00853,2.00733 l 0,22.98534 c 0,1.10862 0.89093,2.00733 1.99742,2.00733 l 15.00516,0 c 1.10314,0 1.99742,-0.89092 1.99742,-1.99742 l 0,-17.00258 -4.99408,0 c -1.10784,0 -2.00592,-0.8867 -2.00592,-1.9981 l 0,-6.0019 0,0 z m 1,0 0,5.99707 c 0,0.55391 0.45097,1.00293 0.99078,1.00293 l 5.00922,0 -6,-7 0,0 z m -7,23 -4,-4 4,-4 0.7,0.7 -3.3,3.3 3.3,3.3 -0.7,0.7 0,0 z m 7,0 4,-4 -4,-4 -0.7,0.7 3.3,3.3 -3.3,3.3 0.7,0.7 0,0 z m -3,-8 -2,8 1,0 2,-8 -1,0 0,0 z"
         id="path4665"
         sketch:type="MSShapeGroup" />
    </mask>
  </defs>
  <sodipodi:namedview
     id="base"
     pagecolor="#ffffff"
     bordercolor="#666666"
     borderopacity="1.0"
     inkscape:pageopacity="0.0"
     inkscape:pageshadow="2"
     inkscape:zoom="2"
     inkscape:cx="386.16784"
     inkscape:cy="855.58128"
     inkscape:document-units="px"
     inkscape:current-layer="layer1"
     showgrid="false"
     inkscape:window-width="1920"
     inkscape:window-height="1028"
     inkscape:window-x="-8"
     inkscape:window-y="-8"
     inkscape:window-maximized="1" />
  <metadata
     id="metadata7">
    <rdf:RDF>
      <cc:Work
         rdf:about="">
        <dc:format>image/svg+xml</dc:format>
        <dc:type
           rdf:resource="http://purl.org/dc/dcmitype/StillImage" />
        <dc:title></dc:title>
      </cc:Work>
    </rdf:RDF>
  </metadata>
  <g
     inkscape:label="Layer 1"
     inkscape:groupmode="layer"
     id="layer1">
    <g
       sketch:type="MSPage"
       id="Page-1"
       style="fill:none;fill-rule:evenodd;stroke:none;stroke-width:1"
       transform="translate(167.18682,19.34979)">
      <g
         sketch:type="MSArtboardGroup"
         id="icon-70-document-code"
         style="fill:#929292">
        <path
           sketch:type="MSShapeGroup"
           id="document-code"
           d="M 19,3 9.0085302,3 C 7.8992496,3 7,3.8983383 7,5.0073299 L 7,27.99267 C 7,29.101288 7.8909254,30 8.9974219,30 L 24.002578,30 C 25.105724,30 26,29.109075 26,28.002578 L 26,11 21.005919,11 C 19.898081,11 19,10.113294 19,9.0018986 L 19,3 19,3 Z m 1,0 0,5.9970707 C 20,9.5509732 20.450975,10 20.990778,10 L 26,10 20,3 20,3 Z m -7,23 -4,-4 4,-4 0.7,0.7 -3.3,3.3 3.3,3.3 -0.7,0.7 0,0 z m 7,0 4,-4 -4,-4 -0.7,0.7 3.3,3.3 -3.3,3.3 0.7,0.7 0,0 z m -3,-8 -2,8 1,0 2,-8 -1,0 0,0 z"
           inkscape:connector-curvature="0" />
      </g>
    </g>
    <g
       sketch:type="MSPage"
       id="Page-1-6"
       style="fill:none;fill-rule:evenodd;stroke:none;stroke-width:1"
       transform="translate(140.61848,20.10048)">
      <g
         sketch:type="MSArtboardGroup"
         id="icon-72-documents"
         style="fill:#929292">
        <path
           sketch:type="MSShapeGroup"
           id="documents"
           d="M 8.9974219,3 C 9.0039651,1.8943826 9.9016946,1 11.00853,1 L 21,1 21,7.0018986 C 21,8.1132936 21.898081,9 23.005919,9 L 28,9 28,26.002578 C 28,27.109075 27.105724,28 26.002578,28 c -0.0065,1.105617 -0.899286,2 -2,2 -0.0065,1.105617 -0.899286,2 -2,2 L 6.9974219,32 C 5.8909254,32 5,31.101288 5,29.99267 L 5,7.0073299 C 5,5.8983383 5.8942762,5 6.9974219,5 7,3.8983383 7.8942762,3 8.9974219,3 l 0,0 z M 7,27.99267 C 7,29.101288 7.8909254,30 8.9974219,30 L 23,30.004543 C 23,30.544737 22.552303,31 22.00004,31 L 6.9999602,31 C 6.4547089,31 6,30.554319 6,30.004543 L 6,6.995457 C 6,6.4552629 6.4476974,6 6.9999602,6 L 7,27.99267 l 0,0 z M 8,4.995457 8,28.004543 C 8,28.554319 8.4547089,29 8.9999602,29 L 24.00004,29 C 24.552303,29 25,28.544737 25,28.004543 L 10.997422,28 C 9.8909254,28 9,27.101288 9,25.99267 L 9,4 C 8.4476974,4 8,4.4552629 8,4.995457 l 0,0 z M 22,1 22,6.9970707 C 22,7.5509732 22.450975,8 22.990778,8 L 28,8 22,1 22,1 Z"
           inkscape:connector-curvature="0" />
      </g>
    </g>
    <g
       sketch:type="MSPage"
       id="Page-1-3"
       style="fill:none;fill-rule:evenodd;stroke:none;stroke-width:1"
       transform="matrix(-1,0,0,1,432.49158,303.43892)">
      <g
         sketch:type="MSArtboardGroup"
         id="icon-111-search"
         style="fill:#929292">
        <path
           sketch:type="MSShapeGroup"
           id="search"
           d="M 19.427116,21.427116 C 18.03725,22.41748 16.336652,23 14.5,23 9.8055794,23 6,19.194421 6,14.5 6,9.8055794 9.8055794,6 14.5,6 c 4.694421,0 8.5,3.8055794 8.5,8.5 0,1.836652 -0.58252,3.53725 -1.572884,4.927116 l 5.584802,5.584802 c 0.550201,0.550201 0.545613,1.430551 -2e-4,1.976363 l -0.02344,0.02344 c -0.544416,0.544417 -1.430661,0.545902 -1.976363,2e-4 l -5.584802,-5.584802 0,0 z M 14.5,21 C 18.089851,21 21,18.089851 21,14.5 21,10.910149 18.089851,8 14.5,8 10.910149,8 8,10.910149 8,14.5 8,18.089851 10.910149,21 14.5,21 l 0,0 z"
           inkscape:connector-curvature="0" />
      </g>
    </g>
    <g
       sketch:type="MSPage"
       id="Page-1-5"
       style="fill:none;fill-rule:evenodd;stroke:none;stroke-width:1"
       transform="translate(359.60076,308.89928)">
      <g
         sketch:type="MSArtboardGroup"
         id="icon-32-clipboard-edit"
         style="fill:#929292">
        <path
           sketch:type="MSShapeGroup"
           id="clipboard-edit"
           d="m 26.443228,13.150335 -11.286215,11.299571 0,0 -2.605566,-2.605566 11.292091,-11.293695 2.59969,2.59969 0,0 z m 0.706688,-0.707525 1.729179,-1.731226 c 0.389974,-0.390435 0.3871,-1.0250798 -0.0048,-1.415899 L 27.694487,8.11911 C 27.301865,7.7275656 26.669258,7.7245247 26.277913,8.1159253 l -1.727318,1.7275629 2.599321,2.5993218 0,0 z m -15.24621,10.168003 -0.639546,3.112697 3.134905,-0.617339 -2.495359,-2.495358 0,0 0,0 z M 22,11 22,8.0035949 C 22,6.89704 21.109075,6 20.002578,6 l -1.002584,0 0,0 c 4e-6,0.00163 6e-6,0.00325 6e-6,0.00488 l 0,0.990237 C 19,8.1061002 18.103334,9 16.99724,9 L 8.0027601,9 C 6.8935426,9 6,8.102384 6,6.9951185 l 0,-0.990237 c 0,-0.00163 1.9e-6,-0.00325 5.8e-6,-0.00488 L 4.9974219,6 C 3.8942762,6 3,6.8897632 3,8.0035949 L 3,28.996405 C 3,30.10296 3.8909254,31 4.9974219,31 L 20.002578,31 C 21.105724,31 22,30.110237 22,28.996405 L 22,19 29.580107,11.419893 c 0.784185,-0.784185 0.786081,-2.0537049 0.0096,-2.8301434 L 28.41025,7.4102504 C 27.631391,6.6313906 26.372781,6.627219 25.580107,7.4198933 L 22,11 l 0,0 0,0 z M 10,5 10,3.9979131 C 10,2.8982606 10.897616,2 12.004882,2 l 0.990237,0 C 14.1061,2 15,2.8944962 15,3.9979131 L 15,5 17.004422,5 C 17.555163,5 18,5.4472481 18,5.9989566 l 0,1.0020868 C 18,7.5573397 17.554265,8 17.004422,8 L 7.9955775,8 C 7.444837,8 7,7.5527519 7,7.0010434 L 7,5.9989566 C 7,5.4426603 7.4457352,5 7.9955775,5 L 10,5 10,5 Z m 2.5,0 C 12.776142,5 13,4.7761424 13,4.5 13,4.2238576 12.776142,4 12.5,4 12.223858,4 12,4.2238576 12,4.5 12,4.7761424 12.223858,5 12.5,5 l 0,0 z"
           inkscape:connector-curvature="0" />
      </g>
    </g>
    <g
       sketch:type="MSPage"
       id="Page-1-54"
       style="fill:#929292;fill-opacity:1;fill-rule:evenodd;stroke:none;stroke-width:1"
       transform="translate(236.49466,302.53533)">
      <g
         sketch:type="MSArtboardGroup"
         id="icon-40-clipboard-list"
         style="fill:#929292;fill-opacity:1">
        <path
           sketch:type="MSShapeGroup"
           id="clipboard-list"
           d="M 13,5 13,3.9979131 C 13,2.8982606 13.897616,2 15.004882,2 l 0.990237,0 C 17.1061,2 18,2.8944962 18,3.9979131 L 18,5 20.004422,5 C 20.555163,5 21,5.4472481 21,5.9989566 l 0,1.0020868 C 21,7.5573397 20.554265,8 20.004422,8 L 10.995578,8 C 10.444837,8 10,7.5527519 10,7.0010434 L 10,5.9989566 C 10,5.4426603 10.445735,5 10.995578,5 L 13,5 13,5 Z m 8.999994,1 1.002584,0 C 24.109075,6 25,6.89704 25,8.0035949 L 25,28.996405 C 25,30.110237 24.105724,31 23.002578,31 L 7.9974219,31 C 6.8909254,31 6,30.10296 6,28.996405 L 6,8.0035949 C 6,6.8897632 6.8942762,6 7.9974219,6 L 9.0000058,6 C 9.0000019,6.0016267 9,6.0032539 9,6.0048815 l 0,0.990237 C 9,8.102384 9.8935427,9 11.00276,9 l 8.99448,0 C 21.103334,9 22,8.1061002 22,6.9951185 l 0,-0.990237 c 0,-0.00163 -2e-6,-0.00325 -6e-6,-0.00488 l 0,0 0,0 z M 15.5,5 C 15.776142,5 16,4.7761424 16,4.5 16,4.2238576 15.776142,4 15.5,4 15.223858,4 15,4.2238576 15,4.5 15,4.7761424 15.223858,5 15.5,5 l 0,0 z m -1.5,9 0,1 8,0 0,-1 -8,0 0,0 z m -5,-1 0,3 3,0 0,-3 -3,0 0,0 z m 1,1 0,1 1,0 0,-1 -1,0 0,0 z m -1,4 0,3 3,0 0,-3 -3,0 0,0 z m 1,1 0,1 1,0 0,-1 -1,0 0,0 z m 4,0 0,1 8,0 0,-1 -8,0 0,0 z m -5,4 0,3 3,0 0,-3 -3,0 0,0 z m 1,1 0,1 1,0 0,-1 -1,0 0,0 z m 4,0 0,1 8,0 0,-1 -8,0 0,0 z"
           inkscape:connector-curvature="0"
           style="fill:#929292;fill-opacity:1" />
      </g>
    </g>
    <g
       sketch:type="MSPage"
       id="Page-1-9"
       style="fill:none;fill-rule:evenodd;stroke:none;stroke-width:1"
       transform="translate(133.72178,226.06678)">
      <g
         sketch:type="MSArtboardGroup"
         id="icon-60-document-diagrams"
         style="fill:#929292">
        <path
           sketch:type="MSShapeGroup"
           id="document-diagrams"
           d="M 19,3 9.0085302,3 C 7.8992496,3 7,3.8983383 7,5.0073299 L 7,27.99267 C 7,29.101288 7.8909254,30 8.9974219,30 L 24.002578,30 C 25.105724,30 26,29.109075 26,28.002578 L 26,11 21.005919,11 C 19.898081,11 19,10.113294 19,9.0018986 L 19,3 19,3 Z m 1,0 0,5.9970707 C 20,9.5509732 20.450975,10 20.990778,10 L 26,10 20,3 20,3 Z m -9,18 0,4 3,0 0,-4 -3,0 0,0 z m 4,-5 0,9 3,0 0,-9 -3,0 0,0 z m 4,3 0,6 3,0 0,-6 -3,0 0,0 z"
           inkscape:connector-curvature="0" />
      </g>
    </g>
    <g
       sketch:type="MSPage"
       id="Page-1-2"
       style="fill:none;fill-rule:evenodd;stroke:none;stroke-width:1"
       transform="translate(193.43961,17.72886)">
      <g
         sketch:type="MSArtboardGroup"
         id="icon-65-document-image"
         style="fill:#929292">
        <path
           sketch:type="MSShapeGroup"
           id="document-image"
           d="M 22,24.045728 22,18 l -11,0 0,7 0,0 2.5,-2 1.457939,1.249662 L 18.59303,21 22,24.045728 l 0,0 0,0 z M 19,3 9.0085302,3 C 7.8992496,3 7,3.8983383 7,5.0073299 L 7,27.99267 C 7,29.101288 7.8909254,30 8.9974219,30 L 24.002578,30 C 25.105724,30 26,29.109075 26,28.002578 L 26,11 21.005919,11 C 19.898081,11 19,10.113294 19,9.0018986 L 19,3 19,3 Z m 1,0 0,5.9970707 C 20,9.5509732 20.450975,10 20.990778,10 L 26,10 20,3 20,3 Z m -10,14 0,10 13,0 0,-10 -13,0 0,0 z m 4,4 c 0.552285,0 1,-0.447715 1,-1 0,-0.552285 -0.447715,-1 -1,-1 -0.552285,0 -1,0.447715 -1,1 0,0.552285 0.447715,1 1,1 l 0,0 z"
           inkscape:connector-curvature="0" />
      </g>
    </g>
    <path
       id="path3776"
       d="m 503.56918,232.92757 c -3.23587,0 -5.86095,2.62509 -5.86095,5.86321 0,3.23471 2.62508,5.86544 5.86095,5.86544 3.237,0 5.84286,-2.63077 5.84286,-5.86544 -3e-5,-3.23812 -2.6059,-5.86321 -5.84286,-5.86321 z m 11.75127,9.23136 -1.05639,2.54478 1.88426,3.70069 0.24882,0.4886 -2.61267,2.61267 -4.28651,-2.02451 -2.54477,1.04507 -1.29164,3.95404 -0.16511,0.52479 -3.69281,0 -1.59811,-4.46298 -2.54478,-1.04959 -3.70627,1.87977 -0.4886,0.2443 -2.61151,-2.61039 2.02226,-4.28882 -1.04846,-2.54253 -3.94735,-1.2894 -0.52367,-0.16963 0,-3.69053 4.46639,-1.6004 1.04846,-2.54028 -1.87862,-3.70862 -0.2477,-0.48636 2.60812,-2.60811 4.29222,2.02114 2.54141,-1.05071 1.29048,-3.9518 0.16627,-0.52363 3.69164,0 1.59928,4.46867 2.53801,1.0507 3.70746,-1.88089 0.49313,-0.2477 2.61039,2.60811 -2.02226,4.28542 1.04506,2.54597 3.95856,1.29048 0.52027,0.16627 0,3.6894 -4.46526,1.60601 z"
       inkscape:connector-curvature="0"
       style="fill-rule:nonzero;opacity:1;fill:#929292;fill-opacity:1" />
    <path
       style="fill:#929292;fill-rule:evenodd;stroke:none;stroke-width:1"
       d="M 324.69727 103.22461 C 323.59043 103.22461 322.6945 104.11899 322.6875 105.22461 C 321.58436 105.22461 320.6905 106.12295 320.6875 107.22461 C 319.58436 107.22461 318.68945 108.12343 318.68945 109.23242 L 318.68945 132.2168 C 318.68945 133.32542 319.58101 134.22461 320.6875 134.22461 L 335.69141 134.22461 C 336.79212 134.22461 337.68541 133.33023 337.69141 132.22461 C 338.79212 132.22461 339.68541 131.33023 339.69141 130.22461 C 340.79455 130.22461 341.68945 129.33305 341.68945 128.22656 L 341.68945 111.22461 L 336.69531 111.22461 C 335.58747 111.22461 334.68945 110.33795 334.68945 109.22656 L 334.68945 103.22461 L 324.69727 103.22461 z M 335.68945 103.22461 L 335.68945 109.22266 C 335.68945 109.77656 336.13988 110.22461 336.67969 110.22461 L 341.68945 110.22461 L 335.68945 103.22461 z M 322.68945 106.22461 L 322.68945 128.2168 C 322.68945 129.32542 323.58101 130.22461 324.6875 130.22461 L 338.68945 130.22852 C 338.68945 130.76872 338.24171 131.22461 337.68945 131.22461 L 322.68945 131.22461 C 322.1442 131.22461 321.68945 130.7783 321.68945 130.22852 L 321.68945 107.2207 C 321.68945 106.6805 322.13715 106.22461 322.68945 106.22461 z M 320.68945 108.22461 L 320.68945 130.21875 C 320.69052 131.32646 321.58167 132.22461 322.6875 132.22461 L 336.68945 132.23047 C 336.68945 132.77067 336.24171 133.22461 335.68945 133.22461 L 320.68945 133.22461 C 320.1442 133.22461 319.68945 132.78025 319.68945 132.23047 L 319.68945 109.2207 C 319.68945 108.6805 320.13719 108.22461 320.68945 108.22461 z M 328.70703 118.24023 L 329.40625 118.93945 L 326.10742 122.24023 L 329.40625 125.54102 L 328.70703 126.24023 L 324.70703 122.24023 L 328.70703 118.24023 z M 332.70703 118.24023 L 333.70703 118.24023 L 331.70703 126.24023 L 330.70703 126.24023 L 332.70703 118.24023 z M 335.70703 118.24023 L 339.70703 122.24023 L 335.70703 126.24023 L 335.00781 125.54102 L 338.30664 122.24023 L 335.00781 118.93945 L 335.70703 118.24023 z "
       id="path4633" />
    <path
       inkscape:connector-curvature="0"
       id="path4722"
       d="m 361.02342,118.24027 -4,4 4,4 0.69922,-0.69922 -3.29883,-3.30078 3.29883,-3.30078 -0.69922,-0.69922 z m 4,0 -2,8 1,0 2,-8 -1,0 z m 3,0 -0.69922,0.69922 3.29883,3.30078 -3.29883,3.30078 0.69922,0.69922 4,-4 -4,-4 z"
       style="opacity:1;fill:#ff0000;fill-opacity:1;fill-rule:nonzero;stroke:none;stroke-opacity:1" />
    <path
       style="fill:#929292;fill-rule:evenodd;stroke:none;stroke-width:1"
       d="m 420.14648,103.22461 c -1.10684,0 -2.00471,0.89438 -2.01171,2 -1.10314,0 -1.997,0.89834 -2,2 -1.10314,0 -1.9961,0.89882 -1.9961,2.00781 l 0,22.98438 c 0,1.10862 0.88961,2.00781 1.9961,2.00781 l 15.00585,0 c 1.10071,0 1.993,-0.89438 2,-2 1.10071,0 1.993,-0.89438 2,-2 1.10315,0 1.99805,-0.89156 1.99805,-1.99805 l 0,-17.00195 -4.99414,0 c -1.10784,0 -2.00586,-0.88666 -2.00586,-1.99805 l 0,-6.00195 -9.99219,0 z m 10.99219,0 0,5.99805 c 0,0.5539 0.45043,1.00195 0.99024,1.00195 l 5.00976,0 -6,-7 z m -13,3 0,21.99219 c 0,1.10862 0.88961,2.00781 1.9961,2.00781 l 14.0039,0.004 c 0,0.5402 -0.44774,0.99609 -1,0.99609 l -15,0 c -0.54525,0 -1,-0.44631 -1,-0.99609 l 0,-23.00782 0,-0.002 c 0,-0.5402 0.4477,-0.99414 1,-0.99414 z m -2,2 0,21.99219 c 0,1.10862 0.88961,2.00781 1.9961,2.00781 l 14.0039,0.006 c 0,0.5402 -0.44774,0.99414 -1,0.99414 l -15,0 c -0.54525,0 -1,-0.44436 -1,-0.99414 l 0,-23.00977 c 0,-0.5402 0.44774,-0.99609 1,-0.99609 z m 4.88672,9 13,0 0,10 -13,0 0,-10 z m 1,1 0,7 2.5,-2 1.45703,1.25 3.63672,-3.25 3.40625,3.04492 0,-6.04492 -11,0 z m 3,1 c 0.55228,0 1,0.44772 1,1 0,0.55228 -0.44772,1 -1,1 -0.55228,0 -1,-0.44772 -1,-1 0,-0.55228 0.44772,-1 1,-1 z"
       id="path4729"
       inkscape:connector-curvature="0" />
    <path
       inkscape:connector-curvature="0"
       id="path4768"
       d="m 477.02539,117.22461 0,10 13,0 0,-10 -13,0 z m 1,1 11,0 0,6.04492 -3.40625,-3.04492 -3.63672,3.25 -1.45703,-1.25 -2.5,2 0,-7 z m 3,1 c -0.55228,0 -1,0.44772 -1,1 0,0.55228 0.44772,1 1,1 0.55228,0 1,-0.44772 1,-1 0,-0.55228 -0.44772,-1 -1,-1 z"
       style="opacity:1;fill:#ff0000;fill-opacity:1;fill-rule:nonzero;stroke:none;stroke-opacity:1" />
  </g>
</svg>
